<svg width="35" height="35" viewBox="0 0 35 35" fill="none" xmlns="http://www.w3.org/2000/svg">
<g clip-path="url(#clip0_15_179)">
<circle cx="17.5" cy="17.5" r="17.5" fill="white"/>
<path d="M25.7337 22.6134C25.3127 21.616 24.7016 20.71 23.9346 19.9459C23.17 19.1797 22.2642 18.5687 21.2672 18.1468C21.2583 18.1424 21.2494 18.1401 21.2404 18.1357C22.6311 17.1312 23.5351 15.4951 23.5351 13.6491C23.5351 10.591 21.0574 8.11336 17.9994 8.11336C14.9413 8.11336 12.4636 10.591 12.4636 13.6491C12.4636 15.4951 13.3677 17.1312 14.7583 18.1379C14.7494 18.1424 14.7404 18.1446 14.7315 18.1491C13.7315 18.5709 12.8342 19.1759 12.0641 19.9482C11.2978 20.7128 10.6869 21.6187 10.265 22.6156C9.85052 23.5916 9.627 24.638 9.6065 25.6982C9.60591 25.722 9.61008 25.7457 9.61879 25.7679C9.6275 25.7901 9.64056 25.8103 9.6572 25.8273C9.67384 25.8444 9.69373 25.858 9.71569 25.8672C9.73765 25.8765 9.76124 25.8812 9.78507 25.8812H11.1244C11.2226 25.8812 11.3007 25.8031 11.3029 25.7071C11.3476 23.9839 12.0395 22.3701 13.2628 21.1468C14.5284 19.8812 16.2092 19.1848 17.9994 19.1848C19.7895 19.1848 21.4703 19.8812 22.736 21.1468C23.9592 22.3701 24.6511 23.9839 24.6958 25.7071C24.698 25.8053 24.7761 25.8812 24.8744 25.8812H26.2136C26.2375 25.8812 26.2611 25.8765 26.283 25.8672C26.305 25.858 26.3249 25.8444 26.3415 25.8273C26.3582 25.8103 26.3712 25.7901 26.3799 25.7679C26.3886 25.7457 26.3928 25.722 26.3922 25.6982C26.3699 24.6312 26.1489 23.5933 25.7337 22.6134V22.6134ZM17.9994 17.4884C16.9748 17.4884 16.0105 17.0888 15.2851 16.3634C14.5596 15.6379 14.1601 14.6736 14.1601 13.6491C14.1601 12.6245 14.5596 11.6602 15.2851 10.9348C16.0105 10.2093 16.9748 9.80979 17.9994 9.80979C19.0239 9.80979 19.9882 10.2093 20.7136 10.9348C21.4391 11.6602 21.8386 12.6245 21.8386 13.6491C21.8386 14.6736 21.4391 15.6379 20.7136 16.3634C19.9882 17.0888 19.0239 17.4884 17.9994 17.4884Z" fill="#290645"/>
</g>
<defs>
<clipPath id="clip0_15_179">
<rect width="35" height="35" fill="white"/>
</clipPath>
</defs>
</svg>
