<svg width="20" height="20" viewBox="0 0 20 20" fill="none" xmlns="http://www.w3.org/2000/svg">
<g clip-path="url(#clip0_3_77)">
<path d="M19.6487 7.76741L17.1463 5.63803V2.23256C17.1463 1.84908 16.8474 1.53704 16.4801 1.53704H14.9055C14.5382 1.53704 14.2393 1.84908 14.2393 2.23256V3.16437L10.8955 0.319118C10.6536 0.11337 10.3348 0 9.99788 0C9.66225 0 9.34497 0.112675 9.10442 0.317348L0.351261 7.76734C-0.0464469 8.10568 -0.0225857 8.40039 0.0270143 8.54595C0.0764932 8.69118 0.235831 8.93487 0.746729 8.93487H1.9453V18.7321C1.9453 19.4313 2.48866 20 3.15654 20H6.94164C7.60388 20 8.12259 19.443 8.12259 18.7321V14.7144C8.12259 14.3701 8.4257 14.0565 8.75849 14.0565H11.3021C11.6193 14.0565 11.8774 14.3517 11.8774 14.7144V18.7321C11.8774 19.4194 12.446 20 13.1189 20H16.8435C17.5113 20 18.0547 19.4312 18.0547 18.7321V8.93487H19.2533C19.7642 8.93487 19.9235 8.69118 19.973 8.54595C20.0226 8.40039 20.0465 8.10568 19.6487 7.76741Z" fill="#33DAFF"/>
</g>
<defs>
<clipPath id="clip0_3_77">
<rect width="20" height="20" fill="white"/>
</clipPath>
</defs>
</svg>
