<svg width="20" height="20" viewBox="0 0 20 20" fill="none" xmlns="http://www.w3.org/2000/svg">
<path d="M14.9527 1.67458C13.2283 1.67458 11.705 2.54028 10.7947 3.85939C10.7947 3.85939 10.4873 4.31935 9.99978 4.31935C9.51271 4.31935 9.20534 3.85939 9.20534 3.85939C8.2946 2.54028 6.77218 1.67458 5.04733 1.67458C2.25958 1.67458 0 3.93416 0 6.72278C0 7.38124 0.129419 8.00779 0.358525 8.58449C1.77251 12.9751 8.09654 18.137 9.99978 18.3254C11.9035 18.137 18.2266 12.9751 19.6415 8.58449C19.8706 8.00822 20 7.38124 20 6.72278C20 3.93416 17.7404 1.67458 14.9527 1.67458Z" fill="#33DAFF"/>
</svg>
